<svg width="1920" height="1080" viewBox="0 0 1920 1080" fill="none" xmlns="http://www.w3.org/2000/svg">
<g clip-path="url(#clip0_1_2)">
<rect width="1920" height="1080" fill="white"/>
<g filter="url(#filter0_d_1_2)">
<rect x="206" y="82" width="454" height="612" fill="#D9D9D9"/>
</g>
<g filter="url(#filter1_d_1_2)">
<rect x="684" y="82" width="840" height="1081" fill="#D9D9D9"/>
</g>
<path d="M730.094 106.5V152H724.156V106.5H730.094ZM744.719 106.5V111.438H709.562V106.5H744.719ZM766.969 146.219V128.812C766.969 127.479 766.698 126.323 766.156 125.344C765.635 124.344 764.844 123.573 763.781 123.031C762.719 122.49 761.406 122.219 759.844 122.219C758.385 122.219 757.104 122.469 756 122.969C754.917 123.469 754.062 124.125 753.438 124.938C752.833 125.75 752.531 126.625 752.531 127.562H746.75C746.75 126.354 747.062 125.156 747.688 123.969C748.312 122.781 749.208 121.708 750.375 120.75C751.562 119.771 752.979 119 754.625 118.438C756.292 117.854 758.146 117.562 760.188 117.562C762.646 117.562 764.812 117.979 766.688 118.812C768.583 119.646 770.062 120.906 771.125 122.594C772.208 124.26 772.75 126.354 772.75 128.875V144.625C772.75 145.75 772.844 146.948 773.031 148.219C773.24 149.49 773.542 150.583 773.938 151.5V152H767.906C767.615 151.333 767.385 150.448 767.219 149.344C767.052 148.219 766.969 147.177 766.969 146.219ZM767.969 131.5L768.031 135.562H762.188C760.542 135.562 759.073 135.698 757.781 135.969C756.49 136.219 755.406 136.604 754.531 137.125C753.656 137.646 752.99 138.302 752.531 139.094C752.073 139.865 751.844 140.771 751.844 141.812C751.844 142.875 752.083 143.844 752.562 144.719C753.042 145.594 753.76 146.292 754.719 146.812C755.698 147.312 756.896 147.562 758.312 147.562C760.083 147.562 761.646 147.188 763 146.438C764.354 145.688 765.427 144.771 766.219 143.688C767.031 142.604 767.469 141.552 767.531 140.531L770 143.312C769.854 144.188 769.458 145.156 768.812 146.219C768.167 147.281 767.302 148.302 766.219 149.281C765.156 150.24 763.885 151.042 762.406 151.688C760.948 152.312 759.302 152.625 757.469 152.625C755.177 152.625 753.167 152.177 751.438 151.281C749.729 150.385 748.396 149.188 747.438 147.688C746.5 146.167 746.031 144.469 746.031 142.594C746.031 140.781 746.385 139.188 747.094 137.812C747.802 136.417 748.823 135.26 750.156 134.344C751.49 133.406 753.094 132.698 754.969 132.219C756.844 131.74 758.938 131.5 761.25 131.5H767.969ZM781.812 104H787.625V145.438L787.125 152H781.812V104ZM810.469 134.812V135.469C810.469 137.927 810.177 140.208 809.594 142.312C809.01 144.396 808.156 146.208 807.031 147.75C805.906 149.292 804.531 150.49 802.906 151.344C801.281 152.198 799.417 152.625 797.312 152.625C795.167 152.625 793.281 152.26 791.656 151.531C790.052 150.781 788.698 149.708 787.594 148.312C786.49 146.917 785.604 145.229 784.938 143.25C784.292 141.271 783.844 139.042 783.594 136.562V133.688C783.844 131.188 784.292 128.948 784.938 126.969C785.604 124.99 786.49 123.302 787.594 121.906C788.698 120.49 790.052 119.417 791.656 118.688C793.26 117.938 795.125 117.562 797.25 117.562C799.375 117.562 801.26 117.979 802.906 118.812C804.552 119.625 805.927 120.792 807.031 122.312C808.156 123.833 809.01 125.656 809.594 127.781C810.177 129.885 810.469 132.229 810.469 134.812ZM804.656 135.469V134.812C804.656 133.125 804.5 131.542 804.188 130.062C803.875 128.562 803.375 127.25 802.688 126.125C802 124.979 801.094 124.083 799.969 123.438C798.844 122.771 797.458 122.438 795.812 122.438C794.354 122.438 793.083 122.688 792 123.188C790.938 123.688 790.031 124.365 789.281 125.219C788.531 126.052 787.917 127.01 787.438 128.094C786.979 129.156 786.635 130.26 786.406 131.406V138.938C786.74 140.396 787.281 141.802 788.031 143.156C788.802 144.49 789.823 145.583 791.094 146.438C792.385 147.292 793.979 147.719 795.875 147.719C797.438 147.719 798.771 147.406 799.875 146.781C801 146.135 801.906 145.25 802.594 144.125C803.302 143 803.823 141.698 804.156 140.219C804.49 138.74 804.656 137.156 804.656 135.469ZM824.062 104V152H818.25V104H824.062ZM847.375 152.625C845.021 152.625 842.885 152.229 840.969 151.438C839.073 150.625 837.438 149.49 836.062 148.031C834.708 146.573 833.667 144.844 832.938 142.844C832.208 140.844 831.844 138.656 831.844 136.281V134.969C831.844 132.219 832.25 129.771 833.062 127.625C833.875 125.458 834.979 123.625 836.375 122.125C837.771 120.625 839.354 119.49 841.125 118.719C842.896 117.948 844.729 117.562 846.625 117.562C849.042 117.562 851.125 117.979 852.875 118.812C854.646 119.646 856.094 120.812 857.219 122.312C858.344 123.792 859.177 125.542 859.719 127.562C860.26 129.562 860.531 131.75 860.531 134.125V136.719H835.281V132H854.75V131.562C854.667 130.062 854.354 128.604 853.812 127.188C853.292 125.771 852.458 124.604 851.312 123.688C850.167 122.771 848.604 122.312 846.625 122.312C845.312 122.312 844.104 122.594 843 123.156C841.896 123.698 840.948 124.51 840.156 125.594C839.365 126.677 838.75 128 838.312 129.562C837.875 131.125 837.656 132.927 837.656 134.969V136.281C837.656 137.885 837.875 139.396 838.312 140.812C838.771 142.208 839.427 143.438 840.281 144.5C841.156 145.562 842.208 146.396 843.438 147C844.688 147.604 846.104 147.906 847.688 147.906C849.729 147.906 851.458 147.49 852.875 146.656C854.292 145.823 855.531 144.708 856.594 143.312L860.094 146.094C859.365 147.198 858.438 148.25 857.312 149.25C856.188 150.25 854.802 151.062 853.156 151.688C851.531 152.312 849.604 152.625 847.375 152.625ZM889.438 118.188V152H883.625V118.188H889.438ZM883.188 109.219C883.188 108.281 883.469 107.49 884.031 106.844C884.615 106.198 885.469 105.875 886.594 105.875C887.698 105.875 888.542 106.198 889.125 106.844C889.729 107.49 890.031 108.281 890.031 109.219C890.031 110.115 889.729 110.885 889.125 111.531C888.542 112.156 887.698 112.469 886.594 112.469C885.469 112.469 884.615 112.156 884.031 111.531C883.469 110.885 883.188 110.115 883.188 109.219ZM912.875 118.188V122.625H894.594V118.188H912.875ZM900.781 109.969H906.562V143.625C906.562 144.771 906.74 145.635 907.094 146.219C907.448 146.802 907.906 147.188 908.469 147.375C909.031 147.562 909.635 147.656 910.281 147.656C910.76 147.656 911.26 147.615 911.781 147.531C912.323 147.427 912.729 147.344 913 147.281L913.031 152C912.573 152.146 911.969 152.281 911.219 152.406C910.49 152.552 909.604 152.625 908.562 152.625C907.146 152.625 905.844 152.344 904.656 151.781C903.469 151.219 902.521 150.281 901.812 148.969C901.125 147.635 900.781 145.844 900.781 143.594V109.969ZM933.688 152.625C931.333 152.625 929.198 152.229 927.281 151.438C925.385 150.625 923.75 149.49 922.375 148.031C921.021 146.573 919.979 144.844 919.25 142.844C918.521 140.844 918.156 138.656 918.156 136.281V134.969C918.156 132.219 918.562 129.771 919.375 127.625C920.188 125.458 921.292 123.625 922.688 122.125C924.083 120.625 925.667 119.49 927.438 118.719C929.208 117.948 931.042 117.562 932.938 117.562C935.354 117.562 937.438 117.979 939.188 118.812C940.958 119.646 942.406 120.812 943.531 122.312C944.656 123.792 945.49 125.542 946.031 127.562C946.573 129.562 946.844 131.75 946.844 134.125V136.719H921.594V132H941.062V131.562C940.979 130.062 940.667 128.604 940.125 127.188C939.604 125.771 938.771 124.604 937.625 123.688C936.479 122.771 934.917 122.312 932.938 122.312C931.625 122.312 930.417 122.594 929.312 123.156C928.208 123.698 927.26 124.51 926.469 125.594C925.677 126.677 925.062 128 924.625 129.562C924.188 131.125 923.969 132.927 923.969 134.969V136.281C923.969 137.885 924.188 139.396 924.625 140.812C925.083 142.208 925.74 143.438 926.594 144.5C927.469 145.562 928.521 146.396 929.75 147C931 147.604 932.417 147.906 934 147.906C936.042 147.906 937.771 147.49 939.188 146.656C940.604 145.823 941.844 144.708 942.906 143.312L946.406 146.094C945.677 147.198 944.75 148.25 943.625 149.25C942.5 150.25 941.115 151.062 939.469 151.688C937.844 152.312 935.917 152.625 933.688 152.625ZM959.344 124.906V152H953.531V118.188H959.031L959.344 124.906ZM958.156 133.812L955.469 133.719C955.49 131.406 955.792 129.271 956.375 127.312C956.958 125.333 957.823 123.615 958.969 122.156C960.115 120.698 961.542 119.573 963.25 118.781C964.958 117.969 966.938 117.562 969.188 117.562C970.771 117.562 972.229 117.792 973.562 118.25C974.896 118.688 976.052 119.385 977.031 120.344C978.01 121.302 978.771 122.531 979.312 124.031C979.854 125.531 980.125 127.344 980.125 129.469V152H974.344V129.75C974.344 127.979 974.042 126.562 973.438 125.5C972.854 124.438 972.021 123.667 970.938 123.188C969.854 122.688 968.583 122.438 967.125 122.438C965.417 122.438 963.99 122.74 962.844 123.344C961.698 123.948 960.781 124.781 960.094 125.844C959.406 126.906 958.906 128.125 958.594 129.5C958.302 130.854 958.156 132.292 958.156 133.812ZM980.062 130.625L976.188 131.812C976.208 129.958 976.51 128.177 977.094 126.469C977.698 124.76 978.562 123.24 979.688 121.906C980.833 120.573 982.24 119.521 983.906 118.75C985.573 117.958 987.479 117.562 989.625 117.562C991.438 117.562 993.042 117.802 994.438 118.281C995.854 118.76 997.042 119.5 998 120.5C998.979 121.479 999.719 122.74 1000.22 124.281C1000.72 125.823 1000.97 127.656 1000.97 129.781V152H995.156V129.719C995.156 127.823 994.854 126.354 994.25 125.312C993.667 124.25 992.833 123.51 991.75 123.094C990.688 122.656 989.417 122.438 987.938 122.438C986.667 122.438 985.542 122.656 984.562 123.094C983.583 123.531 982.76 124.135 982.094 124.906C981.427 125.656 980.917 126.521 980.562 127.5C980.229 128.479 980.062 129.521 980.062 130.625ZM1029.41 143.031C1029.41 142.198 1029.22 141.427 1028.84 140.719C1028.49 139.99 1027.75 139.333 1026.62 138.75C1025.52 138.146 1023.85 137.625 1021.62 137.188C1019.75 136.792 1018.05 136.323 1016.53 135.781C1015.03 135.24 1013.75 134.583 1012.69 133.812C1011.65 133.042 1010.84 132.135 1010.28 131.094C1009.72 130.052 1009.44 128.833 1009.44 127.438C1009.44 126.104 1009.73 124.844 1010.31 123.656C1010.92 122.469 1011.76 121.417 1012.84 120.5C1013.95 119.583 1015.27 118.865 1016.81 118.344C1018.35 117.823 1020.07 117.562 1021.97 117.562C1024.68 117.562 1026.99 118.042 1028.91 119C1030.82 119.958 1032.29 121.24 1033.31 122.844C1034.33 124.427 1034.84 126.188 1034.84 128.125H1029.06C1029.06 127.188 1028.78 126.281 1028.22 125.406C1027.68 124.51 1026.88 123.771 1025.81 123.188C1024.77 122.604 1023.49 122.312 1021.97 122.312C1020.36 122.312 1019.06 122.562 1018.06 123.062C1017.08 123.542 1016.36 124.156 1015.91 124.906C1015.47 125.656 1015.25 126.448 1015.25 127.281C1015.25 127.906 1015.35 128.469 1015.56 128.969C1015.79 129.448 1016.19 129.896 1016.75 130.312C1017.31 130.708 1018.1 131.083 1019.12 131.438C1020.15 131.792 1021.45 132.146 1023.03 132.5C1025.8 133.125 1028.08 133.875 1029.88 134.75C1031.67 135.625 1033 136.698 1033.88 137.969C1034.75 139.24 1035.19 140.781 1035.19 142.594C1035.19 144.073 1034.88 145.427 1034.25 146.656C1033.65 147.885 1032.76 148.948 1031.59 149.844C1030.45 150.719 1029.07 151.406 1027.47 151.906C1025.89 152.385 1024.1 152.625 1022.12 152.625C1019.15 152.625 1016.62 152.094 1014.56 151.031C1012.5 149.969 1010.94 148.594 1009.88 146.906C1008.81 145.219 1008.28 143.438 1008.28 141.562H1014.09C1014.18 143.146 1014.64 144.406 1015.47 145.344C1016.3 146.26 1017.32 146.917 1018.53 147.312C1019.74 147.688 1020.94 147.875 1022.12 147.875C1023.71 147.875 1025.03 147.667 1026.09 147.25C1027.18 146.833 1028 146.26 1028.56 145.531C1029.12 144.802 1029.41 143.969 1029.41 143.031ZM1064.44 104V152H1058.66V104H1064.44ZM1063.06 133.812L1060.66 133.719C1060.68 131.406 1061.02 129.271 1061.69 127.312C1062.35 125.333 1063.29 123.615 1064.5 122.156C1065.71 120.698 1067.15 119.573 1068.81 118.781C1070.5 117.969 1072.36 117.562 1074.41 117.562C1076.07 117.562 1077.57 117.792 1078.91 118.25C1080.24 118.688 1081.38 119.396 1082.31 120.375C1083.27 121.354 1084 122.625 1084.5 124.188C1085 125.729 1085.25 127.615 1085.25 129.844V152H1079.44V129.781C1079.44 128.01 1079.18 126.594 1078.66 125.531C1078.14 124.448 1077.38 123.667 1076.38 123.188C1075.38 122.688 1074.15 122.438 1072.69 122.438C1071.25 122.438 1069.94 122.74 1068.75 123.344C1067.58 123.948 1066.57 124.781 1065.72 125.844C1064.89 126.906 1064.23 128.125 1063.75 129.5C1063.29 130.854 1063.06 132.292 1063.06 133.812ZM1107.94 152.625C1105.58 152.625 1103.45 152.229 1101.53 151.438C1099.64 150.625 1098 149.49 1096.62 148.031C1095.27 146.573 1094.23 144.844 1093.5 142.844C1092.77 140.844 1092.41 138.656 1092.41 136.281V134.969C1092.41 132.219 1092.81 129.771 1093.62 127.625C1094.44 125.458 1095.54 123.625 1096.94 122.125C1098.33 120.625 1099.92 119.49 1101.69 118.719C1103.46 117.948 1105.29 117.562 1107.19 117.562C1109.6 117.562 1111.69 117.979 1113.44 118.812C1115.21 119.646 1116.66 120.812 1117.78 122.312C1118.91 123.792 1119.74 125.542 1120.28 127.562C1120.82 129.562 1121.09 131.75 1121.09 134.125V136.719H1095.84V132H1115.31V131.562C1115.23 130.062 1114.92 128.604 1114.38 127.188C1113.85 125.771 1113.02 124.604 1111.88 123.688C1110.73 122.771 1109.17 122.312 1107.19 122.312C1105.88 122.312 1104.67 122.594 1103.56 123.156C1102.46 123.698 1101.51 124.51 1100.72 125.594C1099.93 126.677 1099.31 128 1098.88 129.562C1098.44 131.125 1098.22 132.927 1098.22 134.969V136.281C1098.22 137.885 1098.44 139.396 1098.88 140.812C1099.33 142.208 1099.99 143.438 1100.84 144.5C1101.72 145.562 1102.77 146.396 1104 147C1105.25 147.604 1106.67 147.906 1108.25 147.906C1110.29 147.906 1112.02 147.49 1113.44 146.656C1114.85 145.823 1116.09 144.708 1117.16 143.312L1120.66 146.094C1119.93 147.198 1119 148.25 1117.88 149.25C1116.75 150.25 1115.36 151.062 1113.72 151.688C1112.09 152.312 1110.17 152.625 1107.94 152.625ZM1133.62 123.5V152H1127.84V118.188H1133.47L1133.62 123.5ZM1144.19 118L1144.16 123.375C1143.68 123.271 1143.22 123.208 1142.78 123.188C1142.36 123.146 1141.89 123.125 1141.34 123.125C1140.01 123.125 1138.83 123.333 1137.81 123.75C1136.79 124.167 1135.93 124.75 1135.22 125.5C1134.51 126.25 1133.95 127.146 1133.53 128.188C1133.14 129.208 1132.88 130.333 1132.75 131.562L1131.12 132.5C1131.12 130.458 1131.32 128.542 1131.72 126.75C1132.14 124.958 1132.77 123.375 1133.62 122C1134.48 120.604 1135.56 119.521 1136.88 118.75C1138.21 117.958 1139.79 117.562 1141.62 117.562C1142.04 117.562 1142.52 117.615 1143.06 117.719C1143.6 117.802 1143.98 117.896 1144.19 118ZM1162.94 152.625C1160.58 152.625 1158.45 152.229 1156.53 151.438C1154.64 150.625 1153 149.49 1151.62 148.031C1150.27 146.573 1149.23 144.844 1148.5 142.844C1147.77 140.844 1147.41 138.656 1147.41 136.281V134.969C1147.41 132.219 1147.81 129.771 1148.62 127.625C1149.44 125.458 1150.54 123.625 1151.94 122.125C1153.33 120.625 1154.92 119.49 1156.69 118.719C1158.46 117.948 1160.29 117.562 1162.19 117.562C1164.6 117.562 1166.69 117.979 1168.44 118.812C1170.21 119.646 1171.66 120.812 1172.78 122.312C1173.91 123.792 1174.74 125.542 1175.28 127.562C1175.82 129.562 1176.09 131.75 1176.09 134.125V136.719H1150.84V132H1170.31V131.562C1170.23 130.062 1169.92 128.604 1169.38 127.188C1168.85 125.771 1168.02 124.604 1166.88 123.688C1165.73 122.771 1164.17 122.312 1162.19 122.312C1160.88 122.312 1159.67 122.594 1158.56 123.156C1157.46 123.698 1156.51 124.51 1155.72 125.594C1154.93 126.677 1154.31 128 1153.88 129.562C1153.44 131.125 1153.22 132.927 1153.22 134.969V136.281C1153.22 137.885 1153.44 139.396 1153.88 140.812C1154.33 142.208 1154.99 143.438 1155.84 144.5C1156.72 145.562 1157.77 146.396 1159 147C1160.25 147.604 1161.67 147.906 1163.25 147.906C1165.29 147.906 1167.02 147.49 1168.44 146.656C1169.85 145.823 1171.09 144.708 1172.16 143.312L1175.66 146.094C1174.93 147.198 1174 148.25 1172.88 149.25C1171.75 150.25 1170.36 151.062 1168.72 151.688C1167.09 152.312 1165.17 152.625 1162.94 152.625Z" fill="black"/>
<rect x="1786" y="977" width="76" height="76" fill="#C90000"/>
</g>
<defs>
<filter id="filter0_d_1_2" x="202" y="82" width="462" height="620" filterUnits="userSpaceOnUse" color-interpolation-filters="sRGB">
<feFlood flood-opacity="0" result="BackgroundImageFix"/>
<feColorMatrix in="SourceAlpha" type="matrix" values="0 0 0 0 0 0 0 0 0 0 0 0 0 0 0 0 0 0 127 0" result="hardAlpha"/>
<feOffset dy="4"/>
<feGaussianBlur stdDeviation="2"/>
<feComposite in2="hardAlpha" operator="out"/>
<feColorMatrix type="matrix" values="0 0 0 0 0 0 0 0 0 0 0 0 0 0 0 0 0 0 0.25 0"/>
<feBlend mode="normal" in2="BackgroundImageFix" result="effect1_dropShadow_1_2"/>
<feBlend mode="normal" in="SourceGraphic" in2="effect1_dropShadow_1_2" result="shape"/>
</filter>
<filter id="filter1_d_1_2" x="680" y="82" width="848" height="1089" filterUnits="userSpaceOnUse" color-interpolation-filters="sRGB">
<feFlood flood-opacity="0" result="BackgroundImageFix"/>
<feColorMatrix in="SourceAlpha" type="matrix" values="0 0 0 0 0 0 0 0 0 0 0 0 0 0 0 0 0 0 127 0" result="hardAlpha"/>
<feOffset dy="4"/>
<feGaussianBlur stdDeviation="2"/>
<feComposite in2="hardAlpha" operator="out"/>
<feColorMatrix type="matrix" values="0 0 0 0 0 0 0 0 0 0 0 0 0 0 0 0 0 0 0.25 0"/>
<feBlend mode="normal" in2="BackgroundImageFix" result="effect1_dropShadow_1_2"/>
<feBlend mode="normal" in="SourceGraphic" in2="effect1_dropShadow_1_2" result="shape"/>
</filter>
<clipPath id="clip0_1_2">
<rect width="1920" height="1080" fill="white"/>
</clipPath>
</defs>
</svg>
